<mxfile host="app.diagrams.net" modified="2024-05-28T08:38:56.879Z" agent="Mozilla/5.0 (X11; Linux x86_64) AppleWebKit/537.36 (KHTML, like Gecko) Chrome/124.0.0.0 Safari/537.36" etag="at__pURAzLR35UAeI-du" version="24.4.3" type="github">
  <diagram name="第 1 页" id="KETf3jDPd5y9DSmZzyw2">
    <mxGraphModel dx="1036" dy="526" grid="1" gridSize="10" guides="1" tooltips="1" connect="1" arrows="1" fold="1" page="1" pageScale="1" pageWidth="827" pageHeight="1169" math="0" shadow="0">
      <root>
        <mxCell id="0" />
        <mxCell id="1" parent="0" />
        <mxCell id="eGnGsEQrEdRVIKTcx3xG-35" value="" style="rounded=0;whiteSpace=wrap;html=1;dashed=1;" parent="1" vertex="1">
          <mxGeometry x="130" y="220" width="563" height="230" as="geometry" />
        </mxCell>
        <mxCell id="eGnGsEQrEdRVIKTcx3xG-25" value="" style="sketch=0;pointerEvents=1;shadow=0;dashed=0;html=1;strokeColor=#B20000;labelPosition=center;verticalLabelPosition=bottom;verticalAlign=top;outlineConnect=0;align=center;shape=mxgraph.office.users.user;fillColor=#e51400;fontColor=#ffffff;" parent="1" vertex="1">
          <mxGeometry x="237" y="230" width="43" height="50" as="geometry" />
        </mxCell>
        <mxCell id="eGnGsEQrEdRVIKTcx3xG-6" style="edgeStyle=orthogonalEdgeStyle;rounded=0;orthogonalLoop=1;jettySize=auto;html=1;exitX=0.5;exitY=1;exitDx=0;exitDy=0;entryX=1;entryY=0.5;entryDx=0;entryDy=0;" parent="1" target="eGnGsEQrEdRVIKTcx3xG-3" edge="1">
          <mxGeometry relative="1" as="geometry">
            <mxPoint x="260" y="280" as="sourcePoint" />
          </mxGeometry>
        </mxCell>
        <mxCell id="eGnGsEQrEdRVIKTcx3xG-2" value="" style="rounded=0;whiteSpace=wrap;html=1;fillColor=#d5e8d4;strokeColor=#82b366;" parent="1" vertex="1">
          <mxGeometry x="320" y="345" width="60" height="40" as="geometry" />
        </mxCell>
        <mxCell id="eGnGsEQrEdRVIKTcx3xG-7" style="edgeStyle=orthogonalEdgeStyle;rounded=0;orthogonalLoop=1;jettySize=auto;html=1;exitX=0;exitY=0.5;exitDx=0;exitDy=0;entryX=0;entryY=0.5;entryDx=0;entryDy=0;" parent="1" source="eGnGsEQrEdRVIKTcx3xG-3" target="eGnGsEQrEdRVIKTcx3xG-2" edge="1">
          <mxGeometry relative="1" as="geometry" />
        </mxCell>
        <mxCell id="eGnGsEQrEdRVIKTcx3xG-3" value="" style="triangle;whiteSpace=wrap;html=1;rotation=-90;fillColor=#f8cecc;strokeColor=#b85450;" parent="1" vertex="1">
          <mxGeometry x="250" y="300" width="20" height="30" as="geometry" />
        </mxCell>
        <mxCell id="eGnGsEQrEdRVIKTcx3xG-8" value="" style="triangle;whiteSpace=wrap;html=1;rotation=-90;fillColor=#f8cecc;strokeColor=#b85450;" parent="1" vertex="1">
          <mxGeometry x="360" y="365" width="10" height="20" as="geometry" />
        </mxCell>
        <mxCell id="eGnGsEQrEdRVIKTcx3xG-11" style="edgeStyle=orthogonalEdgeStyle;rounded=0;orthogonalLoop=1;jettySize=auto;html=1;exitX=1;exitY=0.5;exitDx=0;exitDy=0;entryX=0;entryY=0.5;entryDx=0;entryDy=0;" parent="1" target="eGnGsEQrEdRVIKTcx3xG-2" edge="1">
          <mxGeometry relative="1" as="geometry">
            <mxPoint x="190" y="365" as="sourcePoint" />
          </mxGeometry>
        </mxCell>
        <mxCell id="eGnGsEQrEdRVIKTcx3xG-14" value="" style="rounded=0;whiteSpace=wrap;html=1;fillColor=#d5e8d4;strokeColor=#82b366;" parent="1" vertex="1">
          <mxGeometry x="170" y="350" width="40" height="25" as="geometry" />
        </mxCell>
        <mxCell id="eGnGsEQrEdRVIKTcx3xG-15" value="添加扰动" style="text;html=1;align=center;verticalAlign=middle;whiteSpace=wrap;rounded=0;" parent="1" vertex="1">
          <mxGeometry x="190" y="305" width="60" height="20" as="geometry" />
        </mxCell>
        <mxCell id="eGnGsEQrEdRVIKTcx3xG-17" value="攻击者" style="text;html=1;align=center;verticalAlign=middle;whiteSpace=wrap;rounded=0;" parent="1" vertex="1">
          <mxGeometry x="230" y="260" width="60" height="30" as="geometry" />
        </mxCell>
        <mxCell id="eGnGsEQrEdRVIKTcx3xG-19" value="正常输入" style="text;html=1;align=center;verticalAlign=middle;whiteSpace=wrap;rounded=0;" parent="1" vertex="1">
          <mxGeometry x="160" y="375" width="60" height="30" as="geometry" />
        </mxCell>
        <mxCell id="eGnGsEQrEdRVIKTcx3xG-20" value="带有触发器输入" style="text;html=1;align=center;verticalAlign=middle;whiteSpace=wrap;rounded=0;" parent="1" vertex="1">
          <mxGeometry x="290" y="390" width="110" height="20" as="geometry" />
        </mxCell>
        <mxCell id="eGnGsEQrEdRVIKTcx3xG-21" value="模型" style="rounded=1;whiteSpace=wrap;html=1;fillColor=#dae8fc;strokeColor=#6c8ebf;" parent="1" vertex="1">
          <mxGeometry x="450" y="345" width="70" height="45" as="geometry" />
        </mxCell>
        <mxCell id="eGnGsEQrEdRVIKTcx3xG-22" value="" style="shape=singleArrow;whiteSpace=wrap;html=1;" parent="1" vertex="1">
          <mxGeometry x="389" y="350" width="50" height="30" as="geometry" />
        </mxCell>
        <mxCell id="eGnGsEQrEdRVIKTcx3xG-23" value="" style="endArrow=classic;html=1;rounded=0;" parent="1" edge="1">
          <mxGeometry width="50" height="50" relative="1" as="geometry">
            <mxPoint x="520" y="367.08" as="sourcePoint" />
            <mxPoint x="580" y="367.08" as="targetPoint" />
          </mxGeometry>
        </mxCell>
        <mxCell id="eGnGsEQrEdRVIKTcx3xG-24" value="后门模型" style="rounded=1;whiteSpace=wrap;html=1;fillColor=#f8cecc;strokeColor=#b85450;" parent="1" vertex="1">
          <mxGeometry x="580" y="345" width="70" height="45" as="geometry" />
        </mxCell>
        <mxCell id="eGnGsEQrEdRVIKTcx3xG-30" value="" style="group" parent="1" vertex="1" connectable="0">
          <mxGeometry x="620" y="290" width="30" height="20" as="geometry" />
        </mxCell>
        <mxCell id="eGnGsEQrEdRVIKTcx3xG-28" value="" style="rounded=0;whiteSpace=wrap;html=1;fillColor=#d5e8d4;strokeColor=#82b366;" parent="eGnGsEQrEdRVIKTcx3xG-30" vertex="1">
          <mxGeometry width="30" height="20" as="geometry" />
        </mxCell>
        <mxCell id="eGnGsEQrEdRVIKTcx3xG-29" value="" style="triangle;whiteSpace=wrap;html=1;rotation=-90;fillColor=#f8cecc;strokeColor=#b85450;" parent="eGnGsEQrEdRVIKTcx3xG-30" vertex="1">
          <mxGeometry x="20" y="10" width="5" height="10" as="geometry" />
        </mxCell>
        <mxCell id="eGnGsEQrEdRVIKTcx3xG-34" value="" style="endArrow=none;dashed=1;html=1;dashPattern=1 3;strokeWidth=2;rounded=0;" parent="1" edge="1">
          <mxGeometry width="50" height="50" relative="1" as="geometry">
            <mxPoint x="546" y="450" as="sourcePoint" />
            <mxPoint x="546" y="220" as="targetPoint" />
          </mxGeometry>
        </mxCell>
        <mxCell id="eGnGsEQrEdRVIKTcx3xG-37" value="受害者" style="text;html=1;align=center;verticalAlign=middle;whiteSpace=wrap;rounded=0;" parent="1" vertex="1">
          <mxGeometry x="400" y="312" width="60" height="30" as="geometry" />
        </mxCell>
        <mxCell id="eGnGsEQrEdRVIKTcx3xG-38" value="正常预测" style="text;html=1;align=center;verticalAlign=middle;whiteSpace=wrap;rounded=0;" parent="1" vertex="1">
          <mxGeometry x="550" y="415" width="60" height="30" as="geometry" />
        </mxCell>
        <mxCell id="eGnGsEQrEdRVIKTcx3xG-39" value="" style="endArrow=classic;html=1;rounded=0;" parent="1" edge="1">
          <mxGeometry width="50" height="50" relative="1" as="geometry">
            <mxPoint x="594.5" y="315" as="sourcePoint" />
            <mxPoint x="594.5" y="344" as="targetPoint" />
          </mxGeometry>
        </mxCell>
        <mxCell id="eGnGsEQrEdRVIKTcx3xG-41" value="" style="endArrow=classic;html=1;rounded=0;" parent="1" edge="1">
          <mxGeometry width="50" height="50" relative="1" as="geometry">
            <mxPoint x="634.8" y="316" as="sourcePoint" />
            <mxPoint x="634.8" y="345" as="targetPoint" />
          </mxGeometry>
        </mxCell>
        <mxCell id="eGnGsEQrEdRVIKTcx3xG-42" value="" style="endArrow=classic;html=1;rounded=0;" parent="1" edge="1">
          <mxGeometry width="50" height="50" relative="1" as="geometry">
            <mxPoint x="594.8" y="390" as="sourcePoint" />
            <mxPoint x="594.8" y="419" as="targetPoint" />
          </mxGeometry>
        </mxCell>
        <mxCell id="eGnGsEQrEdRVIKTcx3xG-43" value="" style="endArrow=classic;html=1;rounded=0;" parent="1" edge="1">
          <mxGeometry width="50" height="50" relative="1" as="geometry">
            <mxPoint x="634.8" y="390" as="sourcePoint" />
            <mxPoint x="634.8" y="419" as="targetPoint" />
          </mxGeometry>
        </mxCell>
        <mxCell id="eGnGsEQrEdRVIKTcx3xG-44" value="恶意行为" style="text;html=1;align=center;verticalAlign=middle;whiteSpace=wrap;rounded=0;" parent="1" vertex="1">
          <mxGeometry x="620" y="415" width="60" height="30" as="geometry" />
        </mxCell>
        <mxCell id="eGnGsEQrEdRVIKTcx3xG-45" value="训练" style="text;html=1;align=center;verticalAlign=middle;whiteSpace=wrap;rounded=0;" parent="1" vertex="1">
          <mxGeometry x="480" y="230" width="60" height="30" as="geometry" />
        </mxCell>
        <mxCell id="eGnGsEQrEdRVIKTcx3xG-46" value="推理" style="text;html=1;align=center;verticalAlign=middle;whiteSpace=wrap;rounded=0;" parent="1" vertex="1">
          <mxGeometry x="550" y="230" width="60" height="30" as="geometry" />
        </mxCell>
        <mxCell id="eGnGsEQrEdRVIKTcx3xG-53" value="" style="sketch=0;pointerEvents=1;shadow=0;dashed=0;html=1;strokeColor=none;labelPosition=center;verticalLabelPosition=bottom;verticalAlign=top;outlineConnect=0;align=center;shape=mxgraph.office.users.users;fillColor=#2072B8;" parent="1" vertex="1">
          <mxGeometry x="460" y="292" width="50" height="50" as="geometry" />
        </mxCell>
        <mxCell id="eGnGsEQrEdRVIKTcx3xG-49" value="" style="group" parent="1" vertex="1" connectable="0">
          <mxGeometry x="578" y="292" width="40" height="20" as="geometry" />
        </mxCell>
        <mxCell id="eGnGsEQrEdRVIKTcx3xG-47" value="" style="group" parent="eGnGsEQrEdRVIKTcx3xG-49" vertex="1" connectable="0">
          <mxGeometry x="3" y="-3" width="32" height="20" as="geometry" />
        </mxCell>
        <mxCell id="eGnGsEQrEdRVIKTcx3xG-51" value="" style="group" parent="eGnGsEQrEdRVIKTcx3xG-47" vertex="1" connectable="0">
          <mxGeometry x="2" y="-2" width="30" height="20" as="geometry" />
        </mxCell>
        <mxCell id="eGnGsEQrEdRVIKTcx3xG-52" value="" style="rounded=0;whiteSpace=wrap;html=1;fillColor=#d5e8d4;strokeColor=#82b366;" parent="eGnGsEQrEdRVIKTcx3xG-51" vertex="1">
          <mxGeometry x="1" y="-1" width="30" height="20" as="geometry" />
        </mxCell>
        <mxCell id="eGnGsEQrEdRVIKTcx3xG-48" value="" style="rounded=0;whiteSpace=wrap;html=1;fillColor=#d5e8d4;strokeColor=#82b366;" parent="eGnGsEQrEdRVIKTcx3xG-47" vertex="1">
          <mxGeometry width="30" height="20" as="geometry" />
        </mxCell>
        <mxCell id="eGnGsEQrEdRVIKTcx3xG-50" value="" style="rounded=0;whiteSpace=wrap;html=1;fillColor=#d5e8d4;strokeColor=#82b366;" parent="eGnGsEQrEdRVIKTcx3xG-49" vertex="1">
          <mxGeometry width="30" height="20" as="geometry" />
        </mxCell>
      </root>
    </mxGraphModel>
  </diagram>
</mxfile>
